# xmcd
#
# Track frame offsets:
#	150
#	10456
#	23639
#	35789
#	49030
#	63490
#	75359
#	91485
#	102788
#	119492
#	130921
#	138903
#
# Disc length: 2041 seconds
#
# Revision: 1
# Processed by: cddbd v1.5.2PL0 Copyright (c) Steve Scherf et al.
# Submitted via: audiograbber 1.83.01
#
DISCID=9a07f70c
DTITLE=Fun Kids - Meine 36 Lieblingdlieder (3)
DYEAR=2005
DGENRE=Gangsta
TTITLE0=1,2,3 im Sauseschritt
TTITLE1=Das Jahreszeitenlied
TTITLE2=Früh am morgen
TTITLE3=Wir werden immer größer
TTITLE4=Eine Insel mit zwei Bergen
TTITLE5=Die Biene Maja
TTITLE6=Das Lied der Schlümpfe
TTITLE7=Ottokar hat Segelohren
TTITLE8=Mein bester Freund bist du
TTITLE9=Das Farbenlied
TTITLE10=Immer wenn ein Vogelbaby größer wird
TTITLE11=Gute Nacht, Teddy
EXTD=
EXTT0=
EXTT1=
EXTT2=
EXTT3=
EXTT4=
EXTT5=
EXTT6=
EXTT7=
EXTT8=
EXTT9=
EXTT10=
EXTT11=
PLAYORDER=
